<?xml version="1.0" encoding="utf-8"?>
<!-- Generator: Adobe Illustrator 23.1.0, SVG Export Plug-In . SVG Version: 6.00 Build 0)  -->
<svg version="1.1" id="Layer_1" xmlns="http://www.w3.org/2000/svg" xmlns:xlink="http://www.w3.org/1999/xlink" x="0px" y="0px"
	 viewBox="0 0 768.19 79.37" style="enable-background:new 0 0 768.19 79.37;" xml:space="preserve">
<style type="text/css">
	.st0{fill:#FFFFFF;}
</style>
<path class="st0" d="M724.94,72.63c5.1,3.3,11.81,5.38,18.71,5.38c22.03,0,23.91-15.21,23.91-19.56c0-13.24-9.82-17.97-19.47-22.6
	c-7.85-3.69-15.61-7.28-15.61-16.36c0-9.74,8.8-12.95,16.17-12.95c5.3,0,11.54,1.42,15.88,4.26V4.65
	c-4.53-2.55-10.02-3.96-16.07-3.96c-19,0-22.59,13.04-22.59,18.62c0,12.39,9.25,17.4,18.52,21.84c8.32,3.97,16.74,7.85,16.74,17.3
	c0,7.47-5.86,13.52-17.59,13.52c-5.01,0-10.4-0.38-18.62-5.77V72.63z M669.15,72.63c5.1,3.3,11.81,5.38,18.71,5.38
	c22.03,0,23.91-15.21,23.91-19.56c0-13.24-9.82-17.97-19.47-22.6c-7.85-3.69-15.61-7.28-15.61-16.36c0-9.74,8.8-12.95,16.17-12.95
	c5.3,0,11.54,1.42,15.88,4.26V4.65c-4.53-2.55-10.02-3.96-16.07-3.96c-19,0-22.59,13.04-22.59,18.62c0,12.39,9.25,17.4,18.52,21.84
	c8.32,3.97,16.74,7.85,16.74,17.3c0,7.47-5.86,13.52-17.59,13.52c-5.01,0-10.4-0.38-18.62-5.77V72.63z M639.74,78.01
	c6.15,0,12.57-1.13,16.73-3.3v-6.05c-3.88,2.18-10.4,3.59-16.07,3.59c-16.36,0-18.81-10.78-18.81-14.85
	c0-12.39,11.35-15.51,19.1-15.51h4.44v-5.75h-4.44c-7.94,0-18.91-3.12-18.91-15.32c0-3.97,2.93-14.38,18.72-14.38
	c6.15,0,12.48,1.7,15.98,3.59V3.99c-4.07-2.07-10.87-3.3-16.64-3.3c-21.74,0-24.29,15.31-24.29,19.38c0,11.35,6.32,16.65,14.45,19
	c-9.92,2.83-14.83,9.36-14.83,19.19C615.17,62.42,617.25,78.01,639.74,78.01 M565.94,38.03V7.2c2.93-0.28,6.34-0.47,10.69-0.47
	c18.44,0,19.01,13.43,19.01,15.98c0,2.46-0.57,15.7-19.01,15.7C572.56,38.41,568.87,38.22,565.94,38.03 M601.86,78.39V67.71
	l-16.92-24.67c16.16-3.49,17.2-17.01,17.2-20.32c0-3.41-0.76-21.65-25.52-21.65c-5.77,0-11.63,0.38-17.1,0.94v74.68h6.42V43.5
	c2.55,0.19,6.9,0.38,10.69,0.38h1.61L601.86,78.39z M509.67,39.16V7.2c3.12-0.38,6.24-0.47,10.88-0.47
	c18.54,0,19.11,14.09,19.11,16.46c0,2.46-0.57,16.36-19.11,16.36C516.2,39.54,512.7,39.35,509.67,39.16 M503.26,76.69h6.42V44.83
	c2.84,0.28,6.71,0.38,10.88,0.38c24.77,0,25.62-18.71,25.62-22.02c0-3.22-0.85-22.12-25.62-22.12c-5.77,0-11.92,0.38-17.29,0.94
	V76.69z M395.67,76.69h42.06v-5.76h-17.87V7.67h14.84V2.01h-36.01v5.66h14.84v63.26h-17.87V76.69z M340.77,72.63
	c5.1,3.3,11.81,5.38,18.71,5.38c22.03,0,23.91-15.21,23.91-19.56c0-13.24-9.82-17.97-19.47-22.6c-7.85-3.69-15.61-7.28-15.61-16.36
	c0-9.74,8.8-12.95,16.17-12.95c5.3,0,11.54,1.42,15.88,4.26V4.65c-4.53-2.55-10.02-3.96-16.07-3.96c-19,0-22.59,13.04-22.59,18.62
	c0,12.39,9.25,17.4,18.52,21.84c8.32,3.97,16.74,7.85,16.74,17.3c0,7.47-5.86,13.52-17.59,13.52c-5.01,0-10.4-0.38-18.62-5.77V72.63
	z M310.64,78.01c6.15,0,12.57-1.13,16.73-3.3v-6.05c-3.88,2.18-10.4,3.59-16.07,3.59c-16.36,0-18.81-10.78-18.81-14.85
	c0-12.39,11.35-15.51,19.1-15.51h4.44v-5.75h-4.44c-7.94,0-18.91-3.12-18.91-15.32c0-3.97,2.93-14.38,18.72-14.38
	c6.15,0,12.48,1.7,15.98,3.59V3.99c-4.07-2.07-10.87-3.3-16.64-3.3c-21.74,0-24.29,15.31-24.29,19.38c0,11.35,6.32,16.65,14.45,19
	c-9.92,2.83-14.83,9.36-14.83,19.19C286.07,62.42,288.15,78.01,310.64,78.01 M250.03,72.54c-11.54,0-16.08-17.3-16.08-33.19
	s4.54-33.19,16.08-33.19c11.63,0,16.17,17.3,16.17,33.19S261.67,72.54,250.03,72.54 M250.03,78.01c16.17,0,22.69-20.13,22.69-38.66
	c0-18.63-6.51-38.66-22.69-38.66c-16.08,0-22.69,20.03-22.69,38.66C227.35,57.88,233.95,78.01,250.03,78.01 M179.96,39.16V7.2
	c3.12-0.38,6.24-0.47,10.88-0.47c18.54,0,19.11,14.09,19.11,16.46c0,2.46-0.57,16.36-19.11,16.36
	C186.49,39.54,182.99,39.35,179.96,39.16 M173.54,76.69h6.42V44.83c2.84,0.28,6.71,0.38,10.88,0.38c24.77,0,25.62-18.71,25.62-22.02
	c0-3.22-0.85-22.12-25.62-22.12c-5.77,0-11.91,0.38-17.29,0.94V76.69z M120.69,71.78V6.91c3.12-0.28,6.15-0.38,10.88-0.38
	c16.08,0,20.24,15.98,20.24,32.72c0,16.83-4.16,32.91-20.24,32.91C127.41,72.16,123.81,71.97,120.69,71.78 M114.37,76.69
	c5.28,0.57,11.53,0.94,17.2,0.94c21.37,0,26.75-18.52,26.75-38.38c0-19.76-5.38-38.19-26.75-38.19c-5.67,0-11.92,0.28-17.2,0.94
	V76.69z M77.26,72.54c-11.54,0-16.08-17.3-16.08-33.19S65.72,6.16,77.26,6.16c11.63,0,16.17,17.3,16.17,33.19
	S88.9,72.54,77.26,72.54 M77.26,78.01c16.17,0,22.69-20.13,22.69-38.66c0-18.63-6.51-38.66-22.69-38.66
	c-16.08,0-22.69,20.03-22.69,38.66C54.58,57.88,61.18,78.01,77.26,78.01 M7.19,39.16V7.2c3.12-0.38,6.24-0.47,10.88-0.47
	c18.54,0,19.11,14.09,19.11,16.46c0,2.46-0.57,16.36-19.11,16.36C13.72,39.54,10.22,39.35,7.19,39.16 M0.77,76.69h6.42V44.83
	c2.84,0.28,6.72,0.38,10.88,0.38c24.77,0,25.62-18.71,25.62-22.02c0-3.22-0.85-22.12-25.62-22.12c-5.77,0-11.92,0.38-17.29,0.94
	V76.69z"/>
</svg>
